<svg width="50" height="190" viewBox="0 0 50 190" fill="none" xmlns="http://www.w3.org/2000/svg">
<rect width="50" height="190" fill="#FF0000"/>
<path d="M26.424 172.83L26.424 169.112C27.334 169.112 28.062 168.384 28.062 167.5C28.062 166.538 27.516 165.94 26.71 165.94C25.54 165.94 25.202 167.474 24.76 168.748C23.824 171.374 22.602 172.83 19.924 172.83C17.168 172.83 14.88 170.464 14.88 167.526C14.88 164.068 17.09 162.43 19.976 162.222L19.976 165.81C19.092 165.81 18.364 166.356 18.364 167.422C18.364 168.254 18.858 169.06 19.872 169.06C21.042 169.06 21.25 167.63 21.64 166.304C22.472 163.522 24.032 162.222 26.476 162.222C29.232 162.222 31.52 164.562 31.52 167.5C31.52 170.906 29.232 172.83 26.424 172.83ZM19.248 165.108L19.248 163.158C17.714 163.314 15.608 164.458 15.608 167.5L17.636 167.5C17.636 165.888 18.598 165.342 19.248 165.108ZM27.152 171.92C29.102 171.868 30.792 169.97 30.792 167.5L28.79 167.5C28.764 168.826 28.01 169.658 27.152 169.892L27.152 171.92ZM23.2 159.494C18.546 159.494 14.88 156.036 14.88 151.096C14.88 146.182 18.546 142.698 23.2 142.698C27.854 142.698 31.52 146.182 31.52 151.096C31.52 156.036 27.854 159.494 23.2 159.494ZM23.2 155.62C25.826 155.62 27.906 153.878 27.906 151.096C27.906 148.34 25.826 146.572 23.2 146.572C20.574 146.572 18.494 148.34 18.494 151.096C18.494 153.878 20.574 155.62 23.2 155.62ZM24.838 158.376C28.27 157.7 30.74 154.866 30.74 151.096C30.74 147.352 28.244 144.518 24.838 143.816L24.838 145.818C27.1 146.442 28.712 148.366 28.712 151.096C28.712 153.826 27.074 155.75 24.838 156.374L24.838 158.376ZM25.748 140.049L15.4 140.049L15.4 136.253L25.176 136.253C27.256 136.253 27.984 135.265 27.984 133.939C27.984 132.483 27.256 131.573 25.176 131.573L15.4 131.573L15.4 127.751L25.748 127.751C29.44 127.751 31.52 130.507 31.52 133.939C31.52 137.501 29.336 140.049 25.748 140.049ZM21.666 130.637L21.666 128.713L16.128 128.713L16.128 130.637L21.666 130.637ZM21.666 139.087L21.666 137.189L16.128 137.189L16.128 139.087L21.666 139.087ZM31 125.246L15.4 125.246L15.4 121.216L24.656 115.158L15.4 115.158L15.4 111.362L31 111.362L31 115.34L21.718 121.424L31 121.424L31 125.246ZM25.618 114.196L28.53 112.324L16.128 112.324L16.128 114.196L25.618 114.196ZM30.272 124.284L30.272 122.386L20.756 122.386L17.766 124.284L30.272 124.284ZM31 108.869L15.4 108.869L15.4 103.435C15.4 98.8332 18.78 95.2712 23.174 95.2712C27.334 95.2712 31 98.4432 31 103.435L31 108.869ZM30.272 107.907L30.272 106.009L16.128 106.009L16.128 107.907L30.272 107.907ZM27.516 105.047L27.516 103.513C27.516 101.069 25.8 99.1972 23.174 99.1972C20.756 99.1972 18.858 100.835 18.858 103.513L18.858 105.047L27.516 105.047ZM31 84.3026L18.78 84.3026L18.78 87.7866L15.4 87.7866L15.4 76.9186L18.78 76.9186L18.78 80.4546L31 80.4546L31 84.3026ZM30.272 83.3926L30.272 81.3906L18.78 81.3906L18.78 83.3926L30.272 83.3926ZM31 75.1504L15.4 75.1504L15.4 68.6244C15.4 65.2704 17.428 63.0864 20.366 63.0864C23.096 63.0864 24.63 64.4644 25.202 66.7784L31 62.5664L31 67.3504L25.176 71.3284L31 71.3284L31 75.1504ZM30.272 74.1884L30.272 72.2904L16.128 72.2904L16.128 74.1884L30.272 74.1884ZM22.16 71.3284L22.16 68.2604C22.16 67.4024 21.276 66.8304 20.366 66.8304C19.456 66.8304 18.65 67.5064 18.65 68.3644L18.65 71.3284L22.16 71.3284ZM31 62.043L14.88 54.451L14.88 53.775L31 46.131L31 50.239L29.388 51.019L29.388 57.181L31 57.935L31 62.043ZM26.658 55.985L26.658 52.319L22.706 54.113L22.706 54.165L26.658 55.985ZM26.658 51.279L30.272 49.615L30.272 47.457L26.658 49.173L26.658 51.279ZM30.272 60.743L30.272 58.611L26.658 56.921L26.658 59.027L30.272 60.743ZM23.2 46.6585C18.546 46.6585 14.88 43.1485 14.88 38.2085C14.88 35.2445 15.998 33.1905 17.74 31.5265L20.236 34.1525C19.17 35.2445 18.494 36.6485 18.494 38.2085C18.494 40.9905 20.574 42.7845 23.2 42.7845C25.826 42.7845 27.906 40.9905 27.906 38.2085C27.906 36.6485 27.23 35.2445 26.164 34.1525L28.66 31.6045C30.298 33.1645 31.52 35.3225 31.52 38.2085C31.52 43.1485 27.854 46.6585 23.2 46.6585ZM17.766 38.2085C17.766 36.7265 18.312 35.2965 19.17 34.1785L17.74 32.6965C16.336 34.0745 15.608 35.8685 15.608 38.2085L17.766 38.2085ZM30.792 38.2085C30.792 35.9205 30.064 34.2045 28.712 32.7485L27.204 34.2305C28.036 35.1665 28.634 36.6485 28.634 38.2085L30.792 38.2085ZM31 29.6758L15.4 29.6758L15.4 25.8538L22.368 25.8538L22.368 25.8018L15.4 21.3038L15.4 17.0918L22.81 22.4478L31 16.8058L31 21.0178L23.434 25.8018L23.434 25.8538L31 25.8538L31 29.6758ZM30.272 28.7138L30.272 26.8158L16.128 26.8158L16.128 28.7138L30.272 28.7138Z" fill="black"/>
</svg>
